Coordinates
version=1
nRows=7
nColumns=40
inDegrees=yes

Units are S.I. units (second, meters, Newtons, ...)
Angles are in degrees.

endheader
time	pelvis_tilt	pelvis_list	pelvis_rotation	pelvis_tx	pelvis_ty	pelvis_tz	hip_flexion_r	hip_adduction_r	hip_rotation_r	knee_angle_r	knee_angle_r_beta	ankle_angle_r	subtalar_angle_r	mtp_angle_r	hip_flexion_l	hip_adduction_l	hip_rotation_l	knee_angle_l	knee_angle_l_beta	ankle_angle_l	subtalar_angle_l	mtp_angle_l	lumbar_extension	lumbar_bending	lumbar_rotation	arm_flex_r	arm_add_r	arm_rot_r	elbow_flex_r	pro_sup_r	wrist_flex_r	wrist_dev_r	arm_flex_l	arm_add_l	arm_rot_l	elbow_flex_l	pro_sup_l	wrist_flex_l	wrist_dev_l
     53.50250000	     -3.73146202	     -6.98675376	      2.05521815	      1.09393485	      0.92922956	      0.51949600	      8.11017088	      5.45785008	    -15.92596966	     14.57434204	     14.57434204	     11.60897386	     -0.63399979	     -4.39908893	     35.06002376	    -14.82500713	      2.11046559	     54.98536481	     54.98536481	      8.43893346	    -18.95931662	     15.55076178	    -11.31060670	      6.70895859	      3.14595658	     21.98418506	    -12.92904751	     -5.80313832	     71.93754955	     44.88917330	      0.00000000	      0.00000000	      7.26314936	     -6.50319200	     -1.93880140	     29.43056162	     46.48096600	      0.00000000	      0.00000000
     53.51357143	     -3.93430477	     -6.96254886	      2.35459404	      1.09270395	      0.92860335	      0.51929312	      7.59846094	      5.50611684	    -15.97505565	     14.20881293	     14.20881293	     11.98761285	     -0.68926131	     -4.49499163	     35.88438838	    -14.55193777	      1.66335946	     51.81970136	     51.81970136	      8.46697245	    -18.87673467	     15.95921511	    -11.09912665	      6.58578459	      3.35676506	     24.62139407	    -13.35006140	     -6.01616665	     73.89210742	     44.84572743	      0.00000000	      0.00000000	      6.02662272	     -6.20768872	     -1.79400498	     28.46631842	     46.43490144	      0.00000000	      0.00000000
     53.52464286	     -3.86864561	     -6.90305390	      2.73623833	      1.09170506	      0.92841850	      0.51890266	      6.60243213	      5.56260376	    -16.09428284	     13.49871006	     13.49871006	     12.26619498	     -0.54327693	     -4.59336442	     36.15547905	    -14.06430451	      1.45225134	     48.25807408	     48.25807408	      8.50334196	    -18.74236178	     16.18434469	    -11.31967339	      6.53612172	      2.64403734	     26.99964974	    -12.75354474	     -5.68266118	     77.95432237	     44.71700864	      0.00000000	      0.00000000	      4.70970456	     -6.31603832	     -1.48610714	     26.57101107	     46.36024476	      0.00000000	      0.00000000
     53.53571429	     -3.96352226	     -6.90587111	      3.09487363	      1.09079769	      0.92785572	      0.51826414	      5.81530210	      5.64280604	    -16.35363572	     12.87374308	     12.87374308	     12.54114858	     -0.26418885	     -4.82796458	     36.50147761	    -13.54185253	      1.35368725	     44.58717007	     44.58717007	      8.26052310	    -18.49095072	     15.86768411	    -11.28345775	      6.54668282	      2.66603708	     29.07985560	    -13.07209262	     -5.44361406	     82.11330389	     44.59496513	      0.00000000	      0.00000000	      3.65985169	     -6.11022204	     -1.08548094	     24.96364306	     46.26890840	      0.00000000	      0.00000000
     53.54678571	     -4.10111615	     -6.79353939	      3.34385972	      1.08987402	      0.92721385	      0.51755871	      5.11518280	      5.57918571	    -16.46964186	     12.34990833	     12.34990833	     12.86560512	     -0.03508990	     -5.00068379	     36.69776708	    -12.89030842	      1.24390658	     40.78233927	     40.78233927	      8.04972911	    -17.93738358	     15.60675141	    -11.22449022	      6.36368698	      2.85726533	     31.40855151	    -13.34736461	     -5.54896947	     85.01911659	     44.52383756	      0.00000000	      0.00000000	      2.51209588	     -6.01709826	     -0.82854505	     24.02416843	     46.19784134	      0.00000000	      0.00000000
     53.55785714	     -4.26838005	     -6.83917449	      3.61760287	      1.08916773	      0.92626957	      0.51669276	      4.37934748	      5.68124724	    -16.78664630	     11.69691549	     11.69691549	     13.07185895	      0.45605413	     -5.51389437	     36.76093879	    -12.40326183	      1.18228515	     36.74194156	     36.74194156	      6.61621400	    -17.15334990	     11.70516550	    -11.13474902	      6.43206920	      3.84540168	     32.82746105	    -14.34608883	     -6.38425371	     89.89886180	     44.48938921	      0.00000000	      0.00000000	      1.81591455	     -5.87311906	      1.04469808	     22.78783311	     45.79430229	      0.00000000	      0.00000000
     53.56892857	     -4.39513545	     -6.78928656	      3.87382112	      1.08858531	      0.92544405	      0.51564418	      3.59720525	      5.68228415	    -16.99496786	     11.08117272	     11.08117272	     13.39748078	      0.84523798	     -5.59062057	     36.78639226	    -11.79000059	      1.22119602	     33.05267825	     33.05267825	      6.81012255	    -15.53195004	     11.76299794	    -11.02916719	      6.37276116	      3.72823391	     35.45869767	    -14.32033325	     -6.33422171	     92.08746964	     44.43984321	      0.00000000	      0.00000000	      0.34910573	     -5.86436724	      1.24597410	     22.40656273	     45.72122278	      0.00000000	      0.00000000
